<svg width="14" height="14" viewBox="0 0 14 14" fill="none" xmlns="http://www.w3.org/2000/svg">
<path d="M12.2961 0.292191C12.6867 -0.0984344 13.3211 -0.0984344 13.7117 0.292191C14.1023 0.682816 14.1023 1.31719 13.7117 1.70782L8.41797 6.99844L13.7086 12.2922C14.0992 12.6828 14.0992 13.3172 13.7086 13.7078C13.318 14.0984 12.6836 14.0984 12.293 13.7078L7.00234 8.41407L1.70859 13.7047C1.31797 14.0953 0.683594 14.0953 0.292969 13.7047C-0.0976562 13.3141 -0.0976562 12.6797 0.292969 12.2891L5.58672 6.99844L0.296094 1.70469C-0.0945313 1.31407 -0.0945313 0.682816 0.296094 0.292191C0.686719 -0.0984344 1.32109 -0.0984344 1.71172 0.292191L7.00234 5.58282L12.2961 0.292191Z" fill="#F02040"/>
</svg>
